<svg width="48" height="45" viewBox="0 0 48 45" fill="none" xmlns="http://www.w3.org/2000/svg">
<path d="M8.034 32.682C8.34539 32.9946 8.584 33.372 8.73282 33.7874C8.88165 34.2027 8.93702 34.6458 8.895 35.085C8.68416 37.1177 8.28443 39.1264 7.701 41.085C11.886 40.116 14.442 38.994 15.603 38.406C16.2615 38.0725 17.0199 37.9934 17.733 38.184C19.7773 38.729 21.8843 39.0033 24 39C35.988 39 45 30.579 45 21C45 11.424 35.988 3 24 3C12.012 3 3 11.424 3 21C3 25.404 4.851 29.49 8.034 32.682ZM6.555 44.397C5.84421 44.5379 5.13111 44.6669 4.416 44.784C3.816 44.88 3.36 44.256 3.597 43.698C3.86338 43.0698 4.10753 42.4324 4.329 41.787L4.338 41.757C5.082 39.597 5.688 37.113 5.91 34.8C2.229 31.11 0 26.28 0 21C0 9.402 10.746 0 24 0C37.254 0 48 9.402 48 21C48 32.598 37.254 42 24 42C21.623 42.0032 19.2558 41.6946 16.959 41.082C15.399 41.871 12.042 43.308 6.555 44.397Z" fill="#DD1F6F"/>
</svg>
