<svg width="220" height="220" viewBox="0 0 220 220" fill="none" xmlns="http://www.w3.org/2000/svg">
<rect x="108" y="220" width="10" height="10" rx="2" transform="rotate(-180 108 220)" fill="#FFEDDF"/>
<rect x="52" y="220" width="10" height="10" rx="2" transform="rotate(-180 52 220)" fill="#FFEDDF"/>
<rect x="164" y="220" width="10" height="10" rx="2" transform="rotate(-180 164 220)" fill="#FFEDDF"/>
<rect x="108" y="164" width="10" height="10" rx="2" transform="rotate(-180 108 164)" fill="#FFEDDF"/>
<rect x="164" y="164" width="10" height="10" rx="2" transform="rotate(-180 164 164)" fill="#FFEDDF"/>
<rect x="164" y="108" width="10" height="10" rx="2" transform="rotate(-180 164 108)" fill="#FFEDDF"/>
<rect x="80" y="220" width="10" height="10" rx="2" transform="rotate(-180 80 220)" fill="#FFEDDF"/>
<rect x="192" y="220" width="10" height="10" rx="2" transform="rotate(-180 192 220)" fill="#FFEDDF"/>
<rect x="24" y="220" width="10" height="10" rx="2" transform="rotate(-180 24 220)" fill="#FFEDDF"/>
<rect x="136" y="220" width="10" height="10" rx="2" transform="rotate(-180 136 220)" fill="#FFEDDF"/>
<rect x="80" y="164" width="10" height="10" rx="2" transform="rotate(-180 80 164)" fill="#FFEDDF"/>
<rect x="192" y="164" width="10" height="10" rx="2" transform="rotate(-180 192 164)" fill="#FFEDDF"/>
<rect x="192" y="108" width="10" height="10" rx="2" transform="rotate(-180 192 108)" fill="#FFEDDF"/>
<rect x="192" y="52" width="10" height="10" rx="2" transform="rotate(-180 192 52)" fill="#FFEDDF"/>
<rect x="136" y="164" width="10" height="10" rx="2" transform="rotate(-180 136 164)" fill="#FFEDDF"/>
<rect x="136" y="108" width="10" height="10" rx="2" transform="rotate(-180 136 108)" fill="#FFEDDF"/>
<rect x="108" y="192" width="10" height="10" rx="2" transform="rotate(-180 108 192)" fill="#FFEDDF"/>
<rect x="52" y="192" width="10" height="10" rx="2" transform="rotate(-180 52 192)" fill="#FFEDDF"/>
<rect x="164" y="192" width="10" height="10" rx="2" transform="rotate(-180 164 192)" fill="#FFEDDF"/>
<rect x="108" y="136" width="10" height="10" rx="2" transform="rotate(-180 108 136)" fill="#FFEDDF"/>
<rect x="164" y="136" width="10" height="10" rx="2" transform="rotate(-180 164 136)" fill="#FFEDDF"/>
<rect x="164" y="80" width="10" height="10" rx="2" transform="rotate(-180 164 80)" fill="#FFEDDF"/>
<rect x="80" y="192" width="10" height="10" rx="2" transform="rotate(-180 80 192)" fill="#FFEDDF"/>
<rect x="192" y="192" width="10" height="10" rx="2" transform="rotate(-180 192 192)" fill="#FFEDDF"/>
<rect x="24" y="192" width="10" height="10" rx="2" transform="rotate(-180 24 192)" fill="#FFEDDF"/>
<rect x="136" y="192" width="10" height="10" rx="2" transform="rotate(-180 136 192)" fill="#FFEDDF"/>
<rect x="80" y="136" width="10" height="10" rx="2" transform="rotate(-180 80 136)" fill="#FFEDDF"/>
<rect x="192" y="136" width="10" height="10" rx="2" transform="rotate(-180 192 136)" fill="#FFEDDF"/>
<rect x="192" y="80" width="10" height="10" rx="2" transform="rotate(-180 192 80)" fill="#FFEDDF"/>
<rect x="192" y="24" width="10" height="10" rx="2" transform="rotate(-180 192 24)" fill="#FFEDDF"/>
<rect x="136" y="136" width="10" height="10" rx="2" transform="rotate(-180 136 136)" fill="#FFEDDF"/>
<rect x="136" y="80" width="10" height="10" rx="2" transform="rotate(-180 136 80)" fill="#FFEDDF"/>
<rect x="94" y="220" width="10" height="10" rx="2" transform="rotate(-180 94 220)" fill="#FFEDDF"/>
<rect x="206" y="220" width="10" height="10" rx="2" transform="rotate(-180 206 220)" fill="#FFEDDF"/>
<rect x="220" y="220" width="10" height="10" rx="2" transform="rotate(-180 220 220)" fill="#FFEDDF"/>
<rect x="38" y="220" width="10" height="10" rx="2" transform="rotate(-180 38 220)" fill="#FFEDDF"/>
<rect x="150" y="220" width="10" height="10" rx="2" transform="rotate(-180 150 220)" fill="#FFEDDF"/>
<rect x="94" y="164" width="10" height="10" rx="2" transform="rotate(-180 94 164)" fill="#FFEDDF"/>
<rect x="206" y="164" width="10" height="10" rx="2" transform="rotate(-180 206 164)" fill="#FFEDDF"/>
<rect x="220" y="164" width="10" height="10" rx="2" transform="rotate(-180 220 164)" fill="#FFEDDF"/>
<rect x="206" y="108" width="10" height="10" rx="2" transform="rotate(-180 206 108)" fill="#FFEDDF"/>
<rect x="220" y="108" width="10" height="10" rx="2" transform="rotate(-180 220 108)" fill="#FFEDDF"/>
<rect x="206" y="52" width="10" height="10" rx="2" transform="rotate(-180 206 52)" fill="#FFEDDF"/>
<rect x="220" y="52" width="10" height="10" rx="2" transform="rotate(-180 220 52)" fill="#FFEDDF"/>
<rect x="150" y="164" width="10" height="10" rx="2" transform="rotate(-180 150 164)" fill="#FFEDDF"/>
<rect x="150" y="108" width="10" height="10" rx="2" transform="rotate(-180 150 108)" fill="#FFEDDF"/>
<rect x="66" y="220" width="10" height="10" rx="2" transform="rotate(-180 66 220)" fill="#FFEDDF"/>
<rect x="178" y="220" width="10" height="10" rx="2" transform="rotate(-180 178 220)" fill="#FFEDDF"/>
<rect x="10" y="220" width="10" height="10" rx="2" transform="rotate(-180 10 220)" fill="#FFEDDF"/>
<rect x="122" y="220" width="10" height="10" rx="2" transform="rotate(-180 122 220)" fill="#FFEDDF"/>
<rect x="66" y="164" width="10" height="10" rx="2" transform="rotate(-180 66 164)" fill="#FFEDDF"/>
<rect x="178" y="164" width="10" height="10" rx="2" transform="rotate(-180 178 164)" fill="#FFEDDF"/>
<rect x="178" y="108" width="10" height="10" rx="2" transform="rotate(-180 178 108)" fill="#FFEDDF"/>
<rect x="178" y="52" width="10" height="10" rx="2" transform="rotate(-180 178 52)" fill="#FFEDDF"/>
<rect x="122" y="164" width="10" height="10" rx="2" transform="rotate(-180 122 164)" fill="#FFEDDF"/>
<rect x="122" y="108" width="10" height="10" rx="2" transform="rotate(-180 122 108)" fill="#FFEDDF"/>
<rect x="94" y="192" width="10" height="10" rx="2" transform="rotate(-180 94 192)" fill="#FFEDDF"/>
<rect x="206" y="192" width="10" height="10" rx="2" transform="rotate(-180 206 192)" fill="#FFEDDF"/>
<rect x="220" y="192" width="10" height="10" rx="2" transform="rotate(-180 220 192)" fill="#FFEDDF"/>
<rect x="38" y="192" width="10" height="10" rx="2" transform="rotate(-180 38 192)" fill="#FFEDDF"/>
<rect x="150" y="192" width="10" height="10" rx="2" transform="rotate(-180 150 192)" fill="#FFEDDF"/>
<rect x="94" y="136" width="10" height="10" rx="2" transform="rotate(-180 94 136)" fill="#FFEDDF"/>
<rect x="206" y="136" width="10" height="10" rx="2" transform="rotate(-180 206 136)" fill="#FFEDDF"/>
<rect x="220" y="136" width="10" height="10" rx="2" transform="rotate(-180 220 136)" fill="#FFEDDF"/>
<rect x="206" y="80" width="10" height="10" rx="2" transform="rotate(-180 206 80)" fill="#FFEDDF"/>
<rect x="220" y="80" width="10" height="10" rx="2" transform="rotate(-180 220 80)" fill="#FFEDDF"/>
<rect x="206" y="24" width="10" height="10" rx="2" transform="rotate(-180 206 24)" fill="#FFEDDF"/>
<rect x="220" y="24" width="10" height="10" rx="2" transform="rotate(-180 220 24)" fill="#FFEDDF"/>
<rect x="150" y="136" width="10" height="10" rx="2" transform="rotate(-180 150 136)" fill="#FFEDDF"/>
<rect x="150" y="80" width="10" height="10" rx="2" transform="rotate(-180 150 80)" fill="#FFEDDF"/>
<rect x="66" y="192" width="10" height="10" rx="2" transform="rotate(-180 66 192)" fill="#FFEDDF"/>
<rect x="178" y="192" width="10" height="10" rx="2" transform="rotate(-180 178 192)" fill="#FFEDDF"/>
<rect x="10" y="192" width="10" height="10" rx="2" transform="rotate(-180 10 192)" fill="#FFEDDF"/>
<rect x="122" y="192" width="10" height="10" rx="2" transform="rotate(-180 122 192)" fill="#FFEDDF"/>
<rect x="66" y="136" width="10" height="10" rx="2" transform="rotate(-180 66 136)" fill="#FFEDDF"/>
<rect x="178" y="136" width="10" height="10" rx="2" transform="rotate(-180 178 136)" fill="#FFEDDF"/>
<rect x="178" y="80" width="10" height="10" rx="2" transform="rotate(-180 178 80)" fill="#FFEDDF"/>
<rect x="178" y="24" width="10" height="10" rx="2" transform="rotate(-180 178 24)" fill="#FFEDDF"/>
<rect x="122" y="136" width="10" height="10" rx="2" transform="rotate(-180 122 136)" fill="#FFEDDF"/>
<rect x="122" y="80" width="10" height="10" rx="2" transform="rotate(-180 122 80)" fill="#FFEDDF"/>
<rect x="108" y="206" width="10" height="10" rx="2" transform="rotate(-180 108 206)" fill="#FFEDDF"/>
<rect x="52" y="206" width="10" height="10" rx="2" transform="rotate(-180 52 206)" fill="#FFEDDF"/>
<rect x="164" y="206" width="10" height="10" rx="2" transform="rotate(-180 164 206)" fill="#FFEDDF"/>
<rect x="108" y="150" width="10" height="10" rx="2" transform="rotate(-180 108 150)" fill="#FFEDDF"/>
<rect x="164" y="150" width="10" height="10" rx="2" transform="rotate(-180 164 150)" fill="#FFEDDF"/>
<rect x="164" y="94" width="10" height="10" rx="2" transform="rotate(-180 164 94)" fill="#FFEDDF"/>
<rect x="80" y="206" width="10" height="10" rx="2" transform="rotate(-180 80 206)" fill="#FFEDDF"/>
<rect x="192" y="206" width="10" height="10" rx="2" transform="rotate(-180 192 206)" fill="#FFEDDF"/>
<rect x="24" y="206" width="10" height="10" rx="2" transform="rotate(-180 24 206)" fill="#FFEDDF"/>
<rect x="136" y="206" width="10" height="10" rx="2" transform="rotate(-180 136 206)" fill="#FFEDDF"/>
<rect x="80" y="150" width="10" height="10" rx="2" transform="rotate(-180 80 150)" fill="#FFEDDF"/>
<rect x="192" y="150" width="10" height="10" rx="2" transform="rotate(-180 192 150)" fill="#FFEDDF"/>
<rect x="192" y="94" width="10" height="10" rx="2" transform="rotate(-180 192 94)" fill="#FFEDDF"/>
<rect x="192" y="38" width="10" height="10" rx="2" transform="rotate(-180 192 38)" fill="#FFEDDF"/>
<rect x="136" y="150" width="10" height="10" rx="2" transform="rotate(-180 136 150)" fill="#FFEDDF"/>
<rect x="136" y="94" width="10" height="10" rx="2" transform="rotate(-180 136 94)" fill="#FFEDDF"/>
<rect x="108" y="178" width="10" height="10" rx="2" transform="rotate(-180 108 178)" fill="#FFEDDF"/>
<rect x="52" y="178" width="10" height="10" rx="2" transform="rotate(-180 52 178)" fill="#FFEDDF"/>
<rect x="164" y="178" width="10" height="10" rx="2" transform="rotate(-180 164 178)" fill="#FFEDDF"/>
<rect x="108" y="122" width="10" height="10" rx="2" transform="rotate(-180 108 122)" fill="#FFEDDF"/>
<rect x="164" y="122" width="10" height="10" rx="2" transform="rotate(-180 164 122)" fill="#FFEDDF"/>
<rect x="164" y="66" width="10" height="10" rx="2" transform="rotate(-180 164 66)" fill="#FFEDDF"/>
<rect x="80" y="178" width="10" height="10" rx="2" transform="rotate(-180 80 178)" fill="#FFEDDF"/>
<rect x="192" y="178" width="10" height="10" rx="2" transform="rotate(-180 192 178)" fill="#FFEDDF"/>
<rect x="24" y="178" width="10" height="10" rx="2" transform="rotate(-180 24 178)" fill="#FFEDDF"/>
<rect x="136" y="178" width="10" height="10" rx="2" transform="rotate(-180 136 178)" fill="#FFEDDF"/>
<rect x="80" y="122" width="10" height="10" rx="2" transform="rotate(-180 80 122)" fill="#FFEDDF"/>
<rect x="192" y="122" width="10" height="10" rx="2" transform="rotate(-180 192 122)" fill="#FFEDDF"/>
<rect x="192" y="66" width="10" height="10" rx="2" transform="rotate(-180 192 66)" fill="#FFEDDF"/>
<rect x="192" y="10" width="10" height="10" rx="2" transform="rotate(-180 192 10)" fill="#FFEDDF"/>
<rect x="136" y="122" width="10" height="10" rx="2" transform="rotate(-180 136 122)" fill="#FFEDDF"/>
<rect x="136" y="66" width="10" height="10" rx="2" transform="rotate(-180 136 66)" fill="#FFEDDF"/>
<rect x="94" y="206" width="10" height="10" rx="2" transform="rotate(-180 94 206)" fill="#FFEDDF"/>
<rect x="206" y="206" width="10" height="10" rx="2" transform="rotate(-180 206 206)" fill="#FFEDDF"/>
<rect x="220" y="206" width="10" height="10" rx="2" transform="rotate(-180 220 206)" fill="#FFEDDF"/>
<rect x="38" y="206" width="10" height="10" rx="2" transform="rotate(-180 38 206)" fill="#FFEDDF"/>
<rect x="150" y="206" width="10" height="10" rx="2" transform="rotate(-180 150 206)" fill="#FFEDDF"/>
<rect x="94" y="150" width="10" height="10" rx="2" transform="rotate(-180 94 150)" fill="#FFEDDF"/>
<rect x="206" y="150" width="10" height="10" rx="2" transform="rotate(-180 206 150)" fill="#FFEDDF"/>
<rect x="220" y="150" width="10" height="10" rx="2" transform="rotate(-180 220 150)" fill="#FFEDDF"/>
<rect x="206" y="94" width="10" height="10" rx="2" transform="rotate(-180 206 94)" fill="#FFEDDF"/>
<rect x="220" y="94" width="10" height="10" rx="2" transform="rotate(-180 220 94)" fill="#FFEDDF"/>
<rect x="206" y="38" width="10" height="10" rx="2" transform="rotate(-180 206 38)" fill="#FFEDDF"/>
<rect x="220" y="38" width="10" height="10" rx="2" transform="rotate(-180 220 38)" fill="#FFEDDF"/>
<rect x="150" y="150" width="10" height="10" rx="2" transform="rotate(-180 150 150)" fill="#FFEDDF"/>
<rect x="150" y="94" width="10" height="10" rx="2" transform="rotate(-180 150 94)" fill="#FFEDDF"/>
<rect x="66" y="206" width="10" height="10" rx="2" transform="rotate(-180 66 206)" fill="#FFEDDF"/>
<rect x="178" y="206" width="10" height="10" rx="2" transform="rotate(-180 178 206)" fill="#FFEDDF"/>
<rect x="10" y="206" width="10" height="10" rx="2" transform="rotate(-180 10 206)" fill="#FFEDDF"/>
<rect x="122" y="206" width="10" height="10" rx="2" transform="rotate(-180 122 206)" fill="#FFEDDF"/>
<rect x="66" y="150" width="10" height="10" rx="2" transform="rotate(-180 66 150)" fill="#FFEDDF"/>
<rect x="178" y="150" width="10" height="10" rx="2" transform="rotate(-180 178 150)" fill="#FFEDDF"/>
<rect x="178" y="94" width="10" height="10" rx="2" transform="rotate(-180 178 94)" fill="#FFEDDF"/>
<rect x="178" y="38" width="10" height="10" rx="2" transform="rotate(-180 178 38)" fill="#FFEDDF"/>
<rect x="122" y="150" width="10" height="10" rx="2" transform="rotate(-180 122 150)" fill="#FFEDDF"/>
<rect x="122" y="94" width="10" height="10" rx="2" transform="rotate(-180 122 94)" fill="#FFEDDF"/>
<rect x="94" y="178" width="10" height="10" rx="2" transform="rotate(-180 94 178)" fill="#FFEDDF"/>
<rect x="206" y="178" width="10" height="10" rx="2" transform="rotate(-180 206 178)" fill="#FFEDDF"/>
<rect x="220" y="178" width="10" height="10" rx="2" transform="rotate(-180 220 178)" fill="#FFEDDF"/>
<rect x="38" y="178" width="10" height="10" rx="2" transform="rotate(-180 38 178)" fill="#FFEDDF"/>
<rect x="150" y="178" width="10" height="10" rx="2" transform="rotate(-180 150 178)" fill="#FFEDDF"/>
<rect x="94" y="122" width="10" height="10" rx="2" transform="rotate(-180 94 122)" fill="#FFEDDF"/>
<rect x="206" y="122" width="10" height="10" rx="2" transform="rotate(-180 206 122)" fill="#FFEDDF"/>
<rect x="220" y="122" width="10" height="10" rx="2" transform="rotate(-180 220 122)" fill="#FFEDDF"/>
<rect x="206" y="66" width="10" height="10" rx="2" transform="rotate(-180 206 66)" fill="#FFEDDF"/>
<rect x="220" y="66" width="10" height="10" rx="2" transform="rotate(-180 220 66)" fill="#FFEDDF"/>
<rect x="206" y="10" width="10" height="10" rx="2" transform="rotate(-180 206 10)" fill="#FFEDDF"/>
<rect x="220" y="10" width="10" height="10" rx="2" transform="rotate(-180 220 10)" fill="#FFEDDF"/>
<rect x="150" y="122" width="10" height="10" rx="2" transform="rotate(-180 150 122)" fill="#FFEDDF"/>
<rect x="150" y="66" width="10" height="10" rx="2" transform="rotate(-180 150 66)" fill="#FFEDDF"/>
<rect x="66" y="178" width="10" height="10" rx="2" transform="rotate(-180 66 178)" fill="#FFEDDF"/>
<rect x="178" y="178" width="10" height="10" rx="2" transform="rotate(-180 178 178)" fill="#FFEDDF"/>
<rect x="10" y="178" width="10" height="10" rx="2" transform="rotate(-180 10 178)" fill="#FFEDDF"/>
<rect x="122" y="178" width="10" height="10" rx="2" transform="rotate(-180 122 178)" fill="#FFEDDF"/>
<rect x="66" y="122" width="10" height="10" rx="2" transform="rotate(-180 66 122)" fill="#FFEDDF"/>
<rect x="178" y="122" width="10" height="10" rx="2" transform="rotate(-180 178 122)" fill="#FFEDDF"/>
<rect x="178" y="66" width="10" height="10" rx="2" transform="rotate(-180 178 66)" fill="#FFEDDF"/>
<rect x="178" y="10" width="10" height="10" rx="2" transform="rotate(-180 178 10)" fill="#FFEDDF"/>
<rect x="122" y="122" width="10" height="10" rx="2" transform="rotate(-180 122 122)" fill="#FFEDDF"/>
<rect x="122" y="66" width="10" height="10" rx="2" transform="rotate(-180 122 66)" fill="#FFEDDF"/>
</svg>
