<svg width="219" height="220" viewBox="0 0 219 220" fill="none" xmlns="http://www.w3.org/2000/svg">
<rect x="220" y="112" width="10" height="10" rx="2" transform="rotate(90 220 112)" fill="#FFEDDF"/>
<rect x="220" y="168" width="10" height="10" rx="2" transform="rotate(90 220 168)" fill="#FFEDDF"/>
<rect x="220" y="56" width="10" height="10" rx="2" transform="rotate(90 220 56)" fill="#FFEDDF"/>
<rect x="164" y="112" width="10" height="10" rx="2" transform="rotate(90 164 112)" fill="#FFEDDF"/>
<rect x="164" y="56" width="10" height="10" rx="2" transform="rotate(90 164 56)" fill="#FFEDDF"/>
<rect x="108" y="56" width="10" height="10" rx="2" transform="rotate(90 108 56)" fill="#FFEDDF"/>
<rect x="220" y="140" width="10" height="10" rx="2" transform="rotate(90 220 140)" fill="#FFEDDF"/>
<rect x="220" y="28" width="10" height="10" rx="2" transform="rotate(90 220 28)" fill="#FFEDDF"/>
<rect x="220" y="196" width="10" height="10" rx="2" transform="rotate(90 220 196)" fill="#FFEDDF"/>
<rect x="220" y="84" width="10" height="10" rx="2" transform="rotate(90 220 84)" fill="#FFEDDF"/>
<rect x="164" y="140" width="10" height="10" rx="2" transform="rotate(90 164 140)" fill="#FFEDDF"/>
<rect x="164" y="28" width="10" height="10" rx="2" transform="rotate(90 164 28)" fill="#FFEDDF"/>
<rect x="108" y="28" width="10" height="10" rx="2" transform="rotate(90 108 28)" fill="#FFEDDF"/>
<rect x="52" y="28" width="10" height="10" rx="2" transform="rotate(90 52 28)" fill="#FFEDDF"/>
<rect x="164" y="84" width="10" height="10" rx="2" transform="rotate(90 164 84)" fill="#FFEDDF"/>
<rect x="108" y="84" width="10" height="10" rx="2" transform="rotate(90 108 84)" fill="#FFEDDF"/>
<rect x="192" y="112" width="10" height="10" rx="2" transform="rotate(90 192 112)" fill="#FFEDDF"/>
<rect x="192" y="168" width="10" height="10" rx="2" transform="rotate(90 192 168)" fill="#FFEDDF"/>
<rect x="192" y="56" width="10" height="10" rx="2" transform="rotate(90 192 56)" fill="#FFEDDF"/>
<rect x="136" y="112" width="10" height="10" rx="2" transform="rotate(90 136 112)" fill="#FFEDDF"/>
<rect x="136" y="56" width="10" height="10" rx="2" transform="rotate(90 136 56)" fill="#FFEDDF"/>
<rect x="80" y="56" width="10" height="10" rx="2" transform="rotate(90 80 56)" fill="#FFEDDF"/>
<rect x="192" y="140" width="10" height="10" rx="2" transform="rotate(90 192 140)" fill="#FFEDDF"/>
<rect x="192" y="28" width="10" height="10" rx="2" transform="rotate(90 192 28)" fill="#FFEDDF"/>
<rect x="192" y="196" width="10" height="10" rx="2" transform="rotate(90 192 196)" fill="#FFEDDF"/>
<rect x="192" y="84" width="10" height="10" rx="2" transform="rotate(90 192 84)" fill="#FFEDDF"/>
<rect x="136" y="140" width="10" height="10" rx="2" transform="rotate(90 136 140)" fill="#FFEDDF"/>
<rect x="136" y="28" width="10" height="10" rx="2" transform="rotate(90 136 28)" fill="#FFEDDF"/>
<rect x="80" y="28" width="10" height="10" rx="2" transform="rotate(90 80 28)" fill="#FFEDDF"/>
<rect x="24" y="28" width="10" height="10" rx="2" transform="rotate(90 24 28)" fill="#FFEDDF"/>
<rect x="136" y="84" width="10" height="10" rx="2" transform="rotate(90 136 84)" fill="#FFEDDF"/>
<rect x="80" y="84" width="10" height="10" rx="2" transform="rotate(90 80 84)" fill="#FFEDDF"/>
<rect x="220" y="126" width="10" height="10" rx="2" transform="rotate(90 220 126)" fill="#FFEDDF"/>
<rect x="220" y="14" width="10" height="10" rx="2" transform="rotate(90 220 14)" fill="#FFEDDF"/>
<rect x="220" width="10" height="10" rx="2" transform="rotate(90 220 0)" fill="#FFEDDF"/>
<rect x="220" y="182" width="10" height="10" rx="2" transform="rotate(90 220 182)" fill="#FFEDDF"/>
<rect x="220" y="70" width="10" height="10" rx="2" transform="rotate(90 220 70)" fill="#FFEDDF"/>
<rect x="164" y="126" width="10" height="10" rx="2" transform="rotate(90 164 126)" fill="#FFEDDF"/>
<rect x="164" y="14" width="10" height="10" rx="2" transform="rotate(90 164 14)" fill="#FFEDDF"/>
<rect x="164" width="10" height="10" rx="2" transform="rotate(90 164 0)" fill="#FFEDDF"/>
<rect x="108" y="14" width="10" height="10" rx="2" transform="rotate(90 108 14)" fill="#FFEDDF"/>
<rect x="108" width="10" height="10" rx="2" transform="rotate(90 108 0)" fill="#FFEDDF"/>
<rect x="52" y="14" width="10" height="10" rx="2" transform="rotate(90 52 14)" fill="#FFEDDF"/>
<rect x="52" width="10" height="10" rx="2" transform="rotate(90 52 0)" fill="#FFEDDF"/>
<rect x="164" y="70" width="10" height="10" rx="2" transform="rotate(90 164 70)" fill="#FFEDDF"/>
<rect x="108" y="70" width="10" height="10" rx="2" transform="rotate(90 108 70)" fill="#FFEDDF"/>
<rect x="220" y="154" width="10" height="10" rx="2" transform="rotate(90 220 154)" fill="#FFEDDF"/>
<rect x="220" y="42" width="10" height="10" rx="2" transform="rotate(90 220 42)" fill="#FFEDDF"/>
<rect x="220" y="210" width="10" height="10" rx="2" transform="rotate(90 220 210)" fill="#FFEDDF"/>
<rect x="220" y="98" width="10" height="10" rx="2" transform="rotate(90 220 98)" fill="#FFEDDF"/>
<rect x="164" y="154" width="10" height="10" rx="2" transform="rotate(90 164 154)" fill="#FFEDDF"/>
<rect x="164" y="42" width="10" height="10" rx="2" transform="rotate(90 164 42)" fill="#FFEDDF"/>
<rect x="108" y="42" width="10" height="10" rx="2" transform="rotate(90 108 42)" fill="#FFEDDF"/>
<rect x="52" y="42" width="10" height="10" rx="2" transform="rotate(90 52 42)" fill="#FFEDDF"/>
<rect x="164" y="98" width="10" height="10" rx="2" transform="rotate(90 164 98)" fill="#FFEDDF"/>
<rect x="108" y="98" width="10" height="10" rx="2" transform="rotate(90 108 98)" fill="#FFEDDF"/>
<rect x="192" y="126" width="10" height="10" rx="2" transform="rotate(90 192 126)" fill="#FFEDDF"/>
<rect x="192" y="14" width="10" height="10" rx="2" transform="rotate(90 192 14)" fill="#FFEDDF"/>
<rect x="192" width="10" height="10" rx="2" transform="rotate(90 192 0)" fill="#FFEDDF"/>
<rect x="192" y="182" width="10" height="10" rx="2" transform="rotate(90 192 182)" fill="#FFEDDF"/>
<rect x="192" y="70" width="10" height="10" rx="2" transform="rotate(90 192 70)" fill="#FFEDDF"/>
<rect x="136" y="126" width="10" height="10" rx="2" transform="rotate(90 136 126)" fill="#FFEDDF"/>
<rect x="136" y="14" width="10" height="10" rx="2" transform="rotate(90 136 14)" fill="#FFEDDF"/>
<rect x="136" width="10" height="10" rx="2" transform="rotate(90 136 0)" fill="#FFEDDF"/>
<rect x="80" y="14" width="10" height="10" rx="2" transform="rotate(90 80 14)" fill="#FFEDDF"/>
<rect x="80" width="10" height="10" rx="2" transform="rotate(90 80 0)" fill="#FFEDDF"/>
<rect x="24" y="14" width="10" height="10" rx="2" transform="rotate(90 24 14)" fill="#FFEDDF"/>
<rect x="24" width="10" height="10" rx="2" transform="rotate(90 24 0)" fill="#FFEDDF"/>
<rect x="136" y="70" width="10" height="10" rx="2" transform="rotate(90 136 70)" fill="#FFEDDF"/>
<rect x="80" y="70" width="10" height="10" rx="2" transform="rotate(90 80 70)" fill="#FFEDDF"/>
<rect x="192" y="154" width="10" height="10" rx="2" transform="rotate(90 192 154)" fill="#FFEDDF"/>
<rect x="192" y="42" width="10" height="10" rx="2" transform="rotate(90 192 42)" fill="#FFEDDF"/>
<rect x="192" y="210" width="10" height="10" rx="2" transform="rotate(90 192 210)" fill="#FFEDDF"/>
<rect x="192" y="98" width="10" height="10" rx="2" transform="rotate(90 192 98)" fill="#FFEDDF"/>
<rect x="136" y="154" width="10" height="10" rx="2" transform="rotate(90 136 154)" fill="#FFEDDF"/>
<rect x="136" y="42" width="10" height="10" rx="2" transform="rotate(90 136 42)" fill="#FFEDDF"/>
<rect x="80" y="42" width="10" height="10" rx="2" transform="rotate(90 80 42)" fill="#FFEDDF"/>
<rect x="24" y="42" width="10" height="10" rx="2" transform="rotate(90 24 42)" fill="#FFEDDF"/>
<rect x="136" y="98" width="10" height="10" rx="2" transform="rotate(90 136 98)" fill="#FFEDDF"/>
<rect x="80" y="98" width="10" height="10" rx="2" transform="rotate(90 80 98)" fill="#FFEDDF"/>
<rect x="206" y="112" width="10" height="10" rx="2" transform="rotate(90 206 112)" fill="#FFEDDF"/>
<rect x="206" y="168" width="10" height="10" rx="2" transform="rotate(90 206 168)" fill="#FFEDDF"/>
<rect x="206" y="56" width="10" height="10" rx="2" transform="rotate(90 206 56)" fill="#FFEDDF"/>
<rect x="150" y="112" width="10" height="10" rx="2" transform="rotate(90 150 112)" fill="#FFEDDF"/>
<rect x="150" y="56" width="10" height="10" rx="2" transform="rotate(90 150 56)" fill="#FFEDDF"/>
<rect x="94" y="56" width="10" height="10" rx="2" transform="rotate(90 94 56)" fill="#FFEDDF"/>
<rect x="206" y="140" width="10" height="10" rx="2" transform="rotate(90 206 140)" fill="#FFEDDF"/>
<rect x="206" y="28" width="10" height="10" rx="2" transform="rotate(90 206 28)" fill="#FFEDDF"/>
<rect x="206" y="196" width="10" height="10" rx="2" transform="rotate(90 206 196)" fill="#FFEDDF"/>
<rect x="206" y="84" width="10" height="10" rx="2" transform="rotate(90 206 84)" fill="#FFEDDF"/>
<rect x="150" y="140" width="10" height="10" rx="2" transform="rotate(90 150 140)" fill="#FFEDDF"/>
<rect x="150" y="28" width="10" height="10" rx="2" transform="rotate(90 150 28)" fill="#FFEDDF"/>
<rect x="94" y="28" width="10" height="10" rx="2" transform="rotate(90 94 28)" fill="#FFEDDF"/>
<rect x="38" y="28" width="10" height="10" rx="2" transform="rotate(90 38 28)" fill="#FFEDDF"/>
<rect x="150" y="84" width="10" height="10" rx="2" transform="rotate(90 150 84)" fill="#FFEDDF"/>
<rect x="94" y="84" width="10" height="10" rx="2" transform="rotate(90 94 84)" fill="#FFEDDF"/>
<rect x="178" y="112" width="10" height="10" rx="2" transform="rotate(90 178 112)" fill="#FFEDDF"/>
<rect x="178" y="168" width="10" height="10" rx="2" transform="rotate(90 178 168)" fill="#FFEDDF"/>
<rect x="178" y="56" width="10" height="10" rx="2" transform="rotate(90 178 56)" fill="#FFEDDF"/>
<rect x="122" y="112" width="10" height="10" rx="2" transform="rotate(90 122 112)" fill="#FFEDDF"/>
<rect x="122" y="56" width="10" height="10" rx="2" transform="rotate(90 122 56)" fill="#FFEDDF"/>
<rect x="66" y="56" width="10" height="10" rx="2" transform="rotate(90 66 56)" fill="#FFEDDF"/>
<rect x="178" y="140" width="10" height="10" rx="2" transform="rotate(90 178 140)" fill="#FFEDDF"/>
<rect x="178" y="28" width="10" height="10" rx="2" transform="rotate(90 178 28)" fill="#FFEDDF"/>
<rect x="178" y="196" width="10" height="10" rx="2" transform="rotate(90 178 196)" fill="#FFEDDF"/>
<rect x="178" y="84" width="10" height="10" rx="2" transform="rotate(90 178 84)" fill="#FFEDDF"/>
<rect x="122" y="140" width="10" height="10" rx="2" transform="rotate(90 122 140)" fill="#FFEDDF"/>
<rect x="122" y="28" width="10" height="10" rx="2" transform="rotate(90 122 28)" fill="#FFEDDF"/>
<rect x="66" y="28" width="10" height="10" rx="2" transform="rotate(90 66 28)" fill="#FFEDDF"/>
<rect x="10" y="28" width="10" height="10" rx="2" transform="rotate(90 10 28)" fill="#FFEDDF"/>
<rect x="122" y="84" width="10" height="10" rx="2" transform="rotate(90 122 84)" fill="#FFEDDF"/>
<rect x="66" y="84" width="10" height="10" rx="2" transform="rotate(90 66 84)" fill="#FFEDDF"/>
<rect x="206" y="126" width="10" height="10" rx="2" transform="rotate(90 206 126)" fill="#FFEDDF"/>
<rect x="206" y="14" width="10" height="10" rx="2" transform="rotate(90 206 14)" fill="#FFEDDF"/>
<rect x="206" width="10" height="10" rx="2" transform="rotate(90 206 0)" fill="#FFEDDF"/>
<rect x="206" y="182" width="10" height="10" rx="2" transform="rotate(90 206 182)" fill="#FFEDDF"/>
<rect x="206" y="70" width="10" height="10" rx="2" transform="rotate(90 206 70)" fill="#FFEDDF"/>
<rect x="150" y="126" width="10" height="10" rx="2" transform="rotate(90 150 126)" fill="#FFEDDF"/>
<rect x="150" y="14" width="10" height="10" rx="2" transform="rotate(90 150 14)" fill="#FFEDDF"/>
<rect x="150" width="10" height="10" rx="2" transform="rotate(90 150 0)" fill="#FFEDDF"/>
<rect x="94" y="14" width="10" height="10" rx="2" transform="rotate(90 94 14)" fill="#FFEDDF"/>
<rect x="94" width="10" height="10" rx="2" transform="rotate(90 94 0)" fill="#FFEDDF"/>
<rect x="38" y="14" width="10" height="10" rx="2" transform="rotate(90 38 14)" fill="#FFEDDF"/>
<rect x="38" width="10" height="10" rx="2" transform="rotate(90 38 0)" fill="#FFEDDF"/>
<rect x="150" y="70" width="10" height="10" rx="2" transform="rotate(90 150 70)" fill="#FFEDDF"/>
<rect x="94" y="70" width="10" height="10" rx="2" transform="rotate(90 94 70)" fill="#FFEDDF"/>
<rect x="206" y="154" width="10" height="10" rx="2" transform="rotate(90 206 154)" fill="#FFEDDF"/>
<rect x="206" y="42" width="10" height="10" rx="2" transform="rotate(90 206 42)" fill="#FFEDDF"/>
<rect x="206" y="210" width="10" height="10" rx="2" transform="rotate(90 206 210)" fill="#FFEDDF"/>
<rect x="206" y="98" width="10" height="10" rx="2" transform="rotate(90 206 98)" fill="#FFEDDF"/>
<rect x="150" y="154" width="10" height="10" rx="2" transform="rotate(90 150 154)" fill="#FFEDDF"/>
<rect x="150" y="42" width="10" height="10" rx="2" transform="rotate(90 150 42)" fill="#FFEDDF"/>
<rect x="94" y="42" width="10" height="10" rx="2" transform="rotate(90 94 42)" fill="#FFEDDF"/>
<rect x="38" y="42" width="10" height="10" rx="2" transform="rotate(90 38 42)" fill="#FFEDDF"/>
<rect x="150" y="98" width="10" height="10" rx="2" transform="rotate(90 150 98)" fill="#FFEDDF"/>
<rect x="94" y="98" width="10" height="10" rx="2" transform="rotate(90 94 98)" fill="#FFEDDF"/>
<rect x="178" y="126" width="10" height="10" rx="2" transform="rotate(90 178 126)" fill="#FFEDDF"/>
<rect x="178" y="14" width="10" height="10" rx="2" transform="rotate(90 178 14)" fill="#FFEDDF"/>
<rect x="178" width="10" height="10" rx="2" transform="rotate(90 178 0)" fill="#FFEDDF"/>
<rect x="178" y="182" width="10" height="10" rx="2" transform="rotate(90 178 182)" fill="#FFEDDF"/>
<rect x="178" y="70" width="10" height="10" rx="2" transform="rotate(90 178 70)" fill="#FFEDDF"/>
<rect x="122" y="126" width="10" height="10" rx="2" transform="rotate(90 122 126)" fill="#FFEDDF"/>
<rect x="122" y="14" width="10" height="10" rx="2" transform="rotate(90 122 14)" fill="#FFEDDF"/>
<rect x="122" width="10" height="10" rx="2" transform="rotate(90 122 0)" fill="#FFEDDF"/>
<rect x="66" y="14" width="10" height="10" rx="2" transform="rotate(90 66 14)" fill="#FFEDDF"/>
<rect x="66" width="10" height="10" rx="2" transform="rotate(90 66 0)" fill="#FFEDDF"/>
<rect x="10" y="14" width="10" height="10" rx="2" transform="rotate(90 10 14)" fill="#FFEDDF"/>
<rect x="10" width="10" height="10" rx="2" transform="rotate(90 10 0)" fill="#FFEDDF"/>
<rect x="122" y="70" width="10" height="10" rx="2" transform="rotate(90 122 70)" fill="#FFEDDF"/>
<rect x="66" y="70" width="10" height="10" rx="2" transform="rotate(90 66 70)" fill="#FFEDDF"/>
<rect x="178" y="154" width="10" height="10" rx="2" transform="rotate(90 178 154)" fill="#FFEDDF"/>
<rect x="178" y="42" width="10" height="10" rx="2" transform="rotate(90 178 42)" fill="#FFEDDF"/>
<rect x="178" y="210" width="10" height="10" rx="2" transform="rotate(90 178 210)" fill="#FFEDDF"/>
<rect x="178" y="98" width="10" height="10" rx="2" transform="rotate(90 178 98)" fill="#FFEDDF"/>
<rect x="122" y="154" width="10" height="10" rx="2" transform="rotate(90 122 154)" fill="#FFEDDF"/>
<rect x="122" y="42" width="10" height="10" rx="2" transform="rotate(90 122 42)" fill="#FFEDDF"/>
<rect x="66" y="42" width="10" height="10" rx="2" transform="rotate(90 66 42)" fill="#FFEDDF"/>
<rect x="10" y="42" width="10" height="10" rx="2" transform="rotate(90 10 42)" fill="#FFEDDF"/>
<rect x="122" y="98" width="10" height="10" rx="2" transform="rotate(90 122 98)" fill="#FFEDDF"/>
<rect x="66" y="98" width="10" height="10" rx="2" transform="rotate(90 66 98)" fill="#FFEDDF"/>
</svg>
