<svg width="42" height="42" viewBox="0 0 42 42" fill="none" xmlns="http://www.w3.org/2000/svg">
<path d="M19.5 0H22.5V7.5H19.5V0ZM29.532 10.35L34.791 5.091L36.912 7.212L31.653 12.471L29.532 10.35ZM34.5 19.5H42V22.5H34.5V19.5ZM29.532 31.65L31.653 29.5305L36.912 34.7895L34.791 36.9105L29.532 31.65ZM19.5 34.5H22.5V42H19.5V34.5ZM5.091 34.788L10.35 29.529L12.471 31.65L7.2135 36.909L5.091 34.788ZM0 19.5H7.5V22.5H0V19.5ZM5.0925 7.212L7.2135 5.091L12.4725 10.35L10.35 12.471L5.0925 7.212ZM21 12C19.22 12 17.4799 12.5278 15.9999 13.5168C14.5198 14.5057 13.3663 15.9113 12.6851 17.5558C12.0039 19.2004 11.8257 21.01 12.1729 22.7558C12.5202 24.5016 13.3774 26.1053 14.636 27.364C15.8947 28.6226 17.4984 29.4798 19.2442 29.8271C20.99 30.1743 22.7996 29.9961 24.4442 29.3149C26.0887 28.6337 27.4943 27.4802 28.4832 26.0001C29.4722 24.5201 30 22.78 30 21C30 18.6131 29.0518 16.3239 27.364 14.636C25.6761 12.9482 23.3869 12 21 12Z" fill="white"/>
</svg>
