<svg width="48" height="48" viewBox="0 0 48 48" fill="none" xmlns="http://www.w3.org/2000/svg">
<g clip-path="url(#clip0_11_299)">
<path d="M43.968 32.6955C44.0775 32.4675 44.0775 32.25 44.196 32.0235C46.8825 21.4755 40.4925 9.13951 29.5005 2.64001C34.32 9.13951 36.2265 16.8825 34.5465 23.8365C34.4136 24.4508 34.2253 25.0517 33.984 25.632C33.6757 25.459 33.3758 25.2713 33.0855 25.0695C33.0855 25.0695 22.209 18.3435 10.545 6.56101C10.209 6.22501 16.827 15.9825 24.225 23.7255C20.7495 21.7035 10.881 14.64 4.7085 8.92201C5.3805 10.1475 6.396 11.382 7.404 12.618C12.5595 19.2345 19.2945 27.312 27.366 33.4755C21.6465 36.96 13.686 37.179 5.6085 33.4755C3.5925 32.586 1.905 31.4595 -0.00149536 30.117C3.366 35.3895 8.6385 40.209 14.9205 42.789C22.437 46.0455 30.06 45.819 35.553 42.789H35.6715C35.889 42.6795 36.117 42.561 36.3435 42.3435C39.0315 40.992 44.304 39.54 47.217 45.147C48.0075 46.7175 49.4595 39.429 43.9665 32.6955H43.968Z" fill="white"/>
</g>
<defs>
<clipPath id="clip0_11_299">
<rect width="48" height="48" fill="white"/>
</clipPath>
</defs>
</svg>
