<svg width="720" height="480" xmlns="http://www.w3.org/2000/svg" xmlns:svg="http://www.w3.org/2000/svg">
 <!-- Created with SVG-edit - https://github.com/SVG-Edit/svgedit-->

 <g class="layer">
  <title>Layer 1</title>
  <path d="m401.70764,2c-26.93013,0.91467 -33.29767,1.62913 -38.47178,2.66667c-4.3235,0.86698 -5.88794,1.35568 -9.217,2.39583c-1.73879,0.54327 -4.86298,1.65579 -6.8131,2.77083c-1.88672,1.07861 -2.25421,1.60476 -2.80484,2.625c-0.2671,0.49491 -0.45025,1.455 -0.39801,2.82133c0.03405,0.89468 0.07808,1.35918 0.68976,2.36167c0.33813,0.55446 0.80834,1.15512 2.51309,2.52533c0.97447,0.78328 2.24423,1.62417 3.66485,2.511c1.4758,0.92118 3.10775,1.8642 4.87589,2.817c1.76521,0.9512 3.50165,1.88898 7.48936,3.672c1.84681,0.82581 3.78695,1.60311 5.77053,2.334c1.86676,0.68776 3.7846,1.33321 5.77112,1.938c1.865,0.56786 7.41775,2.06488 11.54165,2.90266c3.60614,0.73265 8.89179,1.64888 17.30866,2.51617c8.23372,0.84839 14.69226,1.63918 16.21619,2.5005c1.13297,0.64032 1.0866,1.59 1.09951,2.775c0.00822,0.74833 -0.98974,1.71163 1.64134,2.46833c3.55214,1.02162 11.08024,1.61577 15.25757,2.82c2.76023,0.7957 2.04287,1.35338 2.33991,2.65717c0.15615,0.68554 0.75786,1.53352 6.78082,2.5215c4.95456,0.81271 10.91998,1.59584 12.0512,2.4c1.40301,0.99755 -0.68976,1.80918 2.04229,2.6c3.50459,1.01454 13.42896,1.71055 16.90185,2.77467c3.04964,0.93451 0.66041,1.69709 3.97539,2.39734c4.19317,0.88573 13.15717,1.87698 18.82555,2.57733c5.51224,0.68105 14.03361,1.87295 15.56224,2.609c2.15265,1.03648 -0.2806,1.85076 2.44264,2.64166c3.50869,1.01892 11.06557,1.57784 15.25757,2.6c3.23396,0.78858 2.33698,1.8 2.33698,2.58933l0,1.04401l0.6927,0.756" fill="none" id="svg_2" stroke="#000000" stroke-width="0"/>
  <path d="m345.00001,28c0.81879,9.458 1.04129,10.23781 1.33583,11.01266c0.29634,0.77984 0.65366,1.57106 1.05268,2.382c0.41323,0.83976 0.87718,1.71504 1.92061,3.60534c0.56934,1.03137 1.18625,2.12978 1.87823,3.3015c0.74034,1.25366 1.56746,2.59515 2.50979,4.0305c1.01041,1.53905 2.10558,3.18893 4.84588,6.83467c1.51359,2.0137 3.20921,4.13524 5.06388,6.345c1.91667,2.28368 3.97209,4.61634 6.19411,6.975c2.23713,2.37476 4.45813,4.74967 9.67227,9.34667c2.52264,2.22404 5.25314,4.37058 8.00572,6.4575c2.69025,2.03972 5.45197,4.02253 8.1721,5.9625c2.66647,1.90168 5.38829,3.75729 10.29267,7.41333c2.39651,1.78651 4.62834,3.56719 6.83683,5.33701c2.20399,1.76619 4.3772,3.53989 6.63732,5.319c2.28526,1.79893 4.56026,3.63138 9.91845,7.34399c2.78359,1.92872 5.8643,3.88701 9.07509,5.8935c3.29905,2.06161 6.77608,4.16904 10.33821,6.3345c3.65761,2.22353 7.47707,4.49863 15.05988,9.272c3.93467,2.47685 7.81985,5.0112 11.7012,7.575c3.89003,2.56955 7.69969,5.13228 11.4353,7.66499c3.65873,2.48065 7.17713,4.89368 13.79912,9.42667c3.04757,2.08615 5.9184,4.04866 8.6374,5.892c2.55578,1.73264 4.97213,3.35916 7.27452,4.884c2.16386,1.43309 4.192,2.7816 8.09624,5.224c1.7902,1.11995 3.55807,2.17958 5.27444,3.198c1.67218,0.99223 3.34752,1.96822 5.00842,2.94601c1.68311,0.99088 3.42969,2.00574 6.95383,4.18933c1.90427,1.17987 3.82578,2.42007 5.82282,3.69749c2.03637,1.30258 4.08684,2.61697 6.18859,3.9225c2.07583,1.28946 4.05471,2.55664 8.30319,4.88c1.95398,1.06856 3.94549,2.05058 5.89484,2.95799c1.82536,0.84967 3.64678,1.62534 5.36315,2.34601l1.63498,0.66466l1.54639,0.61267" fill="none" id="svg_3" stroke="#000000" stroke-width="0"/>
  <path d="m314,80c0,8.83334 -0.00082,9.67934 0.00134,10.52133c0.00217,0.844 0.00702,1.69603 0.0195,2.562c0.01279,0.88603 0.03128,1.79816 0.06448,2.742c0.07065,2.00841 0.13391,3.08146 0.19867,4.19466c0.0665,1.14346 0.14133,2.30667 0.216,3.48c0.07468,1.17333 0.15097,2.33646 0.216,3.48c0.1243,2.18628 0.16516,3.21324 0.19998,4.2c0.03375,0.95658 0.05869,1.89333 0.08401,2.82c0.02533,0.92667 0.04871,1.86347 0.08401,2.82c0.07431,2.01366 0.13525,3.08913 0.20132,4.21867c0.06949,1.18781 0.15045,2.43735 0.2355,3.753c0.08957,1.38568 0.18613,2.84518 0.28049,4.383c0.20401,3.32501 0.29974,5.1161 0.39868,6.972c0.10107,1.89577 0.19904,3.80672 0.29999,5.7075c0.09909,1.86588 0.19427,3.67201 0.29999,5.3925c0.1897,3.08731 0.29364,4.40939 0.40002,5.584c0.09433,1.04167 0.19348,1.96216 0.29999,2.7735c0.09424,0.71794 0.19235,1.35373 0.29999,1.91849c0.18677,0.97997 0.29767,1.41321 0.39868,1.82001c0.09482,0.38184 0.19049,0.73871 0.28049,1.07401c0.08466,0.31537 0.16742,0.61172 0.2355,0.894c0.12564,0.52103 0.16562,0.76863 0.20401,1.01199c0.03897,0.24698 0.07471,0.50578 0.12299,0.78151c0.0528,0.30168 0.11832,0.63605 0.21301,1.0065c0.22849,0.8938 0.40796,1.41994 0.60132,2.00932c0.21347,0.65068 0.45404,1.35933 0.70651,2.13c0.27167,0.8293 0.55942,1.71747 0.84149,2.67c0.61438,2.07465 0.90158,3.20706 1.19467,4.388c0.3028,1.22003 0.5946,2.47511 0.88049,3.7545c0.28885,1.29262 0.56747,2.59221 0.83551,3.8895c0.52612,2.54648 0.76385,3.78287 1.00134,4.98666c0.23117,1.17188 0.45511,2.3114 0.68399,3.41551c0.22192,1.07054 0.44098,2.10645 0.68399,3.10049c0.4606,1.8842 0.72812,2.76184 1.00134,3.60001c0.26279,0.80615 0.54227,1.57265 0.83551,2.2995c0.2818,0.69846 0.57285,1.36154 0.88049,1.9845c0.57852,1.17149 0.89288,1.7011 1.20267,2.20934c0.30341,0.49777 0.62302,0.97948 0.9585,1.452c0.34048,0.47958 0.70493,0.9612 1.09351,1.452c0.83527,1.05498 1.30756,1.61252 1.79599,2.20134c0.50558,0.60951 1.02524,1.23233 1.548,1.86749c0.52521,0.63815 1.04712,1.27428 1.548,1.91251c0.96188,1.22563 1.39114,1.82204 1.80133,2.39999c0.40009,0.56377 0.78482,1.12703 1.17151,1.6875c0.39063,0.56619 0.78839,1.14597 1.21649,1.7325c0.91672,1.25597 1.44437,1.91388 2.00134,2.59868c0.5769,0.70934 1.18112,1.42645 1.80298,2.14799c0.62613,0.72649 1.25864,1.44505 1.89301,2.14799c1.22546,1.35793 1.82068,1.98941 2.396,2.59734c0.55774,0.58934 1.10678,1.15854 1.6485,1.713c0.5343,0.54686 1.06839,1.08595 1.60352,1.623c1.08273,1.08659 1.6377,1.64066 2.20132,2.2c0.56769,0.56335 1.13882,1.12529 1.716,1.677c0.5722,0.54695 1.14066,1.0822 1.716,1.58701c1.10471,0.96927 1.65555,1.40236 2.21466,1.79733c0.55753,0.39386 1.15204,0.75696 1.79849,1.07401c0.68289,0.33493 1.44373,0.63986 2.29352,0.894c1.9595,0.586 3.13165,0.77876 4.388,1.00267c1.32828,0.23672 2.71387,0.44556 4.13098,0.64499c1.42557,0.20062 2.84048,0.38158 4.22101,0.55501c2.57031,0.32291 3.72232,0.4649 4.784,0.59999c0.98166,0.12491 1.8931,0.242 2.745,0.345c0.80145,0.09689 1.56271,0.18639 2.29501,0.255c1.41223,0.13232 2.11307,0.16743 2.81201,0.20399c0.69672,0.03644 1.39081,0.06535 2.08047,0.1035c0.685,0.03789 1.36484,0.07712 2.03552,0.1485c1.32135,0.14063 1.96481,0.26735 2.59866,0.39734c0.62622,0.12842 1.23969,0.27464 1.845,0.41251c0.5947,0.13545 1.17737,0.27319 1.755,0.36749c1.11566,0.18214 1.66544,0.2009 2.20398,0.19734c0.53473,-0.00354 1.06876,-0.04492 1.60352,-0.10651c0.54138,-0.06235 1.08929,-0.1492 1.6485,-0.2415c1.16464,-0.19225 1.77332,-0.29614 2.39865,-0.39734c0.63733,-0.10313 1.28311,-0.20689 1.93201,-0.31949c0.64975,-0.11275 1.29636,-0.2282 1.93201,-0.3645c1.23816,-0.26552 1.82666,-0.42995 2.396,-0.60001c0.55499,-0.16577 1.091,-0.34598 1.6095,-0.53549c0.50684,-0.18527 0.99811,-0.37941 1.47449,-0.58051c0.92487,-0.39043 1.36642,-0.5981 1.80136,-0.79601c0.42508,-0.19344 0.83896,-0.38373 1.245,-0.56099c0.39398,-0.172 0.7767,-0.33627 1.155,-0.47101c0.71417,-0.25435 1.06436,-0.33113 1.39999,-0.40533c0.32443,-0.07172 0.64145,-0.13002 0.94501,-0.207c0.29651,-0.07518 0.58997,-0.15715 0.85498,-0.297c0.54376,-0.28694 0.77628,-0.53812 1.00134,-0.80667c0.24048,-0.28696 0.44934,-0.63066 0.66449,-1.00049l0.21017,-0.40483l0.20618,-0.43884l0.20316,-0.47183" fill="none" id="svg_5" stroke="#000000" stroke-width="0"/>
  <path d="m398,50c0,12.16667 0,13.4215 0,14.68533c0,1.27184 0,2.55067 0,3.8355c0,1.28983 0,2.58366 0,3.8805c0,2.59866 0,3.89716 0,5.18666c0,1.2715 0,2.516 0,3.7245c0,1.1635 0,2.273 0,3.3195c0,1.868 -0.00189,2.67667 0.00266,3.41733c0.00427,0.69469 0.01413,1.36549 0.039,2.034c0.02563,0.68886 0.06628,1.41982 0.129,2.214c0.14771,1.87057 0.26984,2.98345 0.40134,4.22c0.14392,1.35314 0.30878,2.81489 0.49051,4.3785c0.19281,1.65907 0.40158,3.40591 0.62549,5.2335c0.47427,3.87121 0.72937,5.90012 1.00269,7.98133c0.27954,2.12849 0.5777,4.29622 0.91348,6.4935c0.34012,2.22546 0.70398,4.47036 1.13852,6.71851c0.87378,4.52065 1.4245,6.76151 2.00531,8.99734c0.58347,2.24605 1.23111,4.49232 1.93951,6.74249c0.71677,2.2767 1.49243,4.57034 2.34451,6.8775c1.75241,4.74503 2.75009,7.15855 3.82397,9.60133c1.09927,2.50055 2.31174,5.02814 3.70651,7.54199c1.43503,2.58644 3.02942,5.19849 4.92151,7.722c4.00082,5.33597 6.54364,7.83406 9.16531,10.36934c2.67194,2.58388 5.49399,5.05222 8.37152,7.4295c2.83383,2.34119 5.6564,4.53816 8.4165,6.57449c5.02451,3.70694 7.29886,5.23213 9.37732,6.59601c1.89551,1.24384 3.66809,2.33522 5.35199,3.267c1.57608,0.8721 3.10818,1.63934 4.63202,2.27699c3.00409,1.25706 4.60245,1.73383 6.22,2.22133c1.63492,0.49274 3.29398,0.93365 4.96048,1.33501c1.65497,0.39857 3.29715,0.7563 4.9155,1.065c3.09955,0.59126 4.5748,0.80484 5.992,1.00267c1.36459,0.19049 2.68582,0.34697 3.9675,0.474c1.24509,0.12341 2.46106,0.22191 3.6525,0.29399c2.32568,0.14072 3.47217,0.17516 4.612,0.19867c1.13757,0.02347 2.27768,0.02426 3.423,-0.0135c1.15616,-0.03813 2.32776,-0.10539 3.513,-0.23849c2.45129,-0.27528 3.71146,-0.52769 4.98801,-0.8c1.28729,-0.2746 2.56335,-0.59557 3.81152,-0.9615c1.22266,-0.35846 2.40002,-0.73929 3.49646,-1.18649c2.00702,-0.81863 2.84979,-1.30704 3.59601,-1.79868c0.69684,-0.45912 1.31079,-0.96059 1.84503,-1.49399c0.51917,-0.51836 0.98071,-1.08017 1.39496,-1.67401c0.84973,-1.21808 1.21814,-1.90494 1.61603,-2.60133c0.41095,-0.71921 0.81866,-1.47066 1.23901,-2.2455l0.4303,-0.79984l0.44232,-0.82382l0.45636,-0.84683" fill="none" id="svg_10" stroke="#000000" stroke-width="0"/>
  <ellipse cx="697.11665" cy="87.17101" fill="#1fdddd" fill-opacity="0.4" id="svg_4" rx="211.03392" ry="211" stroke="#000000" stroke-width="0" transform="rotate(26.1519, 697.117, 87.171)"/>
  <circle cx="217" cy="75" fill="#1fdddd" fill-opacity="0.4" id="svg_7" r="63.03174" stroke="#000000" stroke-width="0"/>
  <circle cx="470" cy="347" fill="#1fdddd" fill-opacity="0.4" id="svg_9" r="63.03174" stroke="#000000" stroke-width="0"/>
  <circle cx="369.00001" cy="107" fill="#1fdddd" fill-opacity="0.4" id="svg_11" r="23.03174" stroke="#000000" stroke-width="0"/>
  <circle cx="49" cy="150" fill="#1fdddd" fill-opacity="0.4" id="svg_12" r="32.03174" stroke="#000000" stroke-width="0"/>
  <ellipse cx="42.99946" cy="458.00109" fill="#1fdddd" fill-opacity="0.4" id="svg_13" rx="211.03392" ry="211" stroke="#000000" stroke-width="0" transform="rotate(26.1519, 42.9995, 458.001)"/>
  <path d="m162.82862,205.97633l-3.4961,-3.49974l2.30246,0l3.4961,3.49974l-3.4961,3.49974l-2.30246,0l3.4961,-3.49974z" fill="#1fdddd" fill-opacity="0.4" id="svg_15" stroke="#000000" stroke-width="0"/>
 </g>
</svg>